<svg width="400" height="160" viewBox="0 0 400 160" fill="none" xmlns="http://www.w3.org/2000/svg">
<path fill-rule="evenodd" clip-rule="evenodd" d="M117 110.999H65.3929C60.0092 110.999 55.0338 108.361 52.3388 104.071L51.6667 103.003L50.9945 101.929C48.2995 97.6447 43.3241 95.0003 37.9341 95.0003H19L29.0513 79.0015H47.9854C50.6804 79.0015 53.2686 79.6597 55.5238 80.8548C57.7791 82.0557 59.7014 83.7878 61.0458 85.9299L61.7179 86.998L62.3901 88.0719C65.0851 92.3617 70.0605 95.0003 75.4442 95.0003H106.949L111.974 103.003L117 110.999Z" fill="url(#paint0_linear_7967_45212)"/>
<path fill-rule="evenodd" clip-rule="evenodd" d="M116.992 111L66.7418 31L56.6924 47L96.8961 111H116.992Z" fill="url(#paint1_linear_7967_45212)"/>
<path fill-rule="evenodd" clip-rule="evenodd" d="M76.7888 46.9988L71.7631 55.0012L66.7375 63.0035L61.7119 71L56.6862 79.0023L55.524 80.8557C53.2688 79.6605 50.6806 79.0023 47.9856 79.0023H29.3279C33.8195 79.0023 37.9657 76.8025 40.2084 73.2286L41.6093 71L46.6349 63.0035L51.6606 55.0012L56.6862 46.9988L61.7119 39.0023L66.7375 31L71.7631 39.0023L76.7888 46.9988Z" fill="url(#paint2_linear_7967_45212)"/>
<path d="M349.539 112.473C337.671 112.473 331.935 104.956 331.935 92.9891V60.2529H342.913V90.9122C342.913 98.7253 345.781 103.374 353.099 103.374C360.616 103.374 365.066 97.6374 365.066 88.5386V60.2529H376.044V111.187H365.462L365.264 103.473C362.297 108.418 356.858 112.473 349.539 112.473Z" fill="#15395F"/>
<path d="M316.66 112.473C305.484 112.473 299.946 107.33 299.946 97.4398V68.4619H290.056V60.2531H299.946V44.3301H310.825V60.2531H324.671V68.4619H310.825V96.253C310.825 101.297 312.704 103.572 318.737 103.572C320.913 103.572 323.484 103.077 324.968 102.583V111.286C322.693 111.978 319.231 112.473 316.66 112.473Z" fill="#15395F"/>
<path d="M260.362 128H249.186L255.713 110.89L236.131 60.2529H247.702L261.45 98.9231L274.702 60.2529H285.878L260.362 128Z" fill="#15395F"/>
<path d="M206.285 112.473C195.802 112.473 189.176 106.143 189.176 97.4399C189.176 89.33 194.121 83.9894 202.824 82.8026L222.901 79.8356V76.1762C222.901 70.5389 219.044 67.5719 212.615 67.5719C206.285 67.5719 202.033 70.44 201.538 75.5828H191.154C192.044 65.0994 200.351 59.0664 212.813 59.0664C225.967 59.0664 233.384 65.9895 233.384 76.5718V111.187H223.395L223 103.275C219.835 109.011 213.604 112.473 206.285 112.473ZM208.758 103.868C216.373 103.868 222.901 99.1212 222.901 92.4949V87.8465L206.582 90.1213C201.934 90.8136 199.758 92.9894 199.758 96.9454C199.758 101.198 203.022 103.868 208.758 103.868Z" fill="#15395F"/>
<path d="M156.923 87.3515L151.879 92.3954V111.187H141V38H151.879V80.6262L171.857 60.2527H185.011L164.736 80.6262L185.703 111.187H173.242L156.923 87.3515Z" fill="#15395F"/>
<defs>
<linearGradient id="paint0_linear_7967_45212" x1="9819" y1="1877.98" x2="5099.86" y2="898.323" gradientUnits="userSpaceOnUse">
<stop stop-color="#1C155C"/>
<stop offset="1" stop-color="#014BFA"/>
</linearGradient>
<linearGradient id="paint1_linear_7967_45212" x1="2023.42" y1="31" x2="3397.8" y2="3831.18" gradientUnits="userSpaceOnUse">
<stop stop-color="#2563EA"/>
<stop offset="1" stop-color="#014BFA"/>
</linearGradient>
<linearGradient id="paint2_linear_7967_45212" x1="4002.33" y1="6043.84" x2="4002.33" y2="31" gradientUnits="userSpaceOnUse">
<stop stop-color="#1C155C"/>
<stop offset="0.39942" stop-color="#014BFA"/>
<stop offset="0.9999" stop-color="#014BFA"/>
<stop offset="1" stop-color="#FD7810"/>
</linearGradient>
</defs>
</svg>
