<svg width="88" height="24" viewBox="0 0 88 24" fill="none" xmlns="http://www.w3.org/2000/svg">
    <g id="Group">
        <g id="Group 1232">
            <path id="Vector" fill-rule="evenodd" clip-rule="evenodd"
                  d="M25.4738 21.269H12.0592C10.6598 21.269 9.36652 20.5879 8.66599 19.4805L8.49127 19.2048L8.31654 18.9276C7.61601 17.8217 6.32273 17.1391 4.92167 17.1391H0L2.6127 13.0093H7.53437C8.2349 13.0093 8.90767 13.1792 9.49389 13.4877C10.0801 13.7977 10.5798 14.2448 10.9292 14.7977L11.104 15.0735L11.2787 15.3507C11.9792 16.458 13.2725 17.1391 14.6719 17.1391H22.8611L24.1675 19.2048L25.4738 21.269Z"
                  fill="url(#paint0_linear_5930_3063)"/>
            <path id="Vector_2" fill-rule="evenodd" clip-rule="evenodd"
                  d="M25.4729 21.2694L12.411 0.618652L9.79883 4.7488L20.2492 21.2694H25.4729Z"
                  fill="url(#paint1_linear_5930_3063)"/>
            <path id="Vector_3" fill-rule="evenodd" clip-rule="evenodd"
                  d="M15.0204 4.74851L13.7141 6.81418L12.4077 8.87985L11.1014 10.944L9.79503 13.0097L9.49293 13.4881C8.90671 13.1796 8.23394 13.0097 7.53341 13.0097H2.68359C3.85114 13.0097 4.92888 12.4419 5.51184 11.5193L5.87598 10.944L7.18233 8.87985L8.48868 6.81418L9.79503 4.74851L11.1014 2.68432L12.4077 0.618652L13.7141 2.68432L15.0204 4.74851Z"
                  fill="url(#paint2_linear_5930_3063)"/>
        </g>
        <path id="Vector_4"
              d="M30.6191 19.1896V2.73047H32.4985V19.1896H30.6191ZM35.5737 13.2643L40.5771 19.1896H38.2585L33.4259 13.2643L37.7947 8.50215H40.1134L35.5737 13.2643ZM47.2402 8.26075C48.6395 8.26075 49.7622 8.63382 50.6083 9.37997C51.4544 10.1261 51.8775 11.2015 51.8775 12.606V19.1896H49.9981V12.5182C49.9981 11.6404 49.7419 10.971 49.2293 10.5102C48.7168 10.0493 48.013 9.81888 47.1181 9.81888C45.7839 9.81888 44.6286 10.3895 43.6524 11.5306L42.4076 10.6089C43.4978 9.04347 45.1086 8.26075 47.2402 8.26075ZM48.8022 13.4399V14.8225H46.4347C44.7425 14.8225 43.8964 15.3345 43.8964 16.3587C43.8964 16.9146 44.1364 17.3316 44.6164 17.6096C45.0964 17.8875 45.7025 18.0265 46.4347 18.0265C47.1995 18.0265 47.9886 17.8217 48.8022 17.412V18.7946C48.0537 19.2189 47.1263 19.431 46.0198 19.431C44.8808 19.431 43.9208 19.1567 43.1398 18.6081C42.3588 18.0594 41.9683 17.3316 41.9683 16.4245C41.9683 15.532 42.3588 14.8115 43.1398 14.2629C43.9208 13.7142 44.9622 13.4399 46.2639 13.4399H48.8022ZM58.6625 17.434L54.4158 8.50215H56.4415L59.6632 15.3272L58.6625 17.434ZM56.4171 23.3812C55.8476 23.3812 55.2375 23.3081 54.5866 23.1618V21.7353C55.2049 21.8085 55.6931 21.845 56.051 21.845C56.6693 21.845 57.1941 21.7207 57.6253 21.472C58.0564 21.2232 58.4185 20.777 58.7114 20.1333L64.3005 8.50215H66.3019L60.4687 20.66C59.59 22.4741 58.2395 23.3812 56.4171 23.3812ZM71.4029 5.58339V8.50215H75.1127V10.0164H67.5222V8.50215H69.5236V5.58339H71.4029ZM71.4029 11.0917V15.8539C71.4029 16.6147 71.6185 17.145 72.0497 17.445C72.4809 17.7449 73.1032 17.8948 73.9168 17.8948C74.3724 17.8948 74.9012 17.851 75.5032 17.7632V19.1896C74.7873 19.3506 74.1202 19.431 73.5019 19.431C72.2815 19.431 71.3134 19.1457 70.5975 18.5752C69.8815 18.0046 69.5236 17.1341 69.5236 15.9636V11.0917H71.4029ZM83.0938 19.431C81.6782 19.431 80.5026 19.0177 79.567 18.1911C78.6314 17.3645 78.1636 16.2782 78.1636 14.9322V8.50215H80.0429V15.0419C80.0429 15.9051 80.3317 16.5891 80.9093 17.0938C81.487 17.5986 82.2232 17.851 83.1182 17.851C83.769 17.851 84.3792 17.712 84.9487 17.434V19.058C84.3629 19.3067 83.7446 19.431 83.0938 19.431ZM86.1202 18.4435V8.50215H87.9995V14.9322C87.9995 16.5562 87.3731 17.7266 86.1202 18.4435Z"
              fill="#F2F3F5"/>
    </g>
    <defs>
        <linearGradient id="paint0_linear_5930_3063" x1="2547.38" y1="477.387" x2="1321.41" y2="221.109"
                        gradientUnits="userSpaceOnUse">
            <stop stop-color="#1C155C"/>
            <stop offset="1" stop-color="#014BFA"/>
        </linearGradient>
        <linearGradient id="paint1_linear_5930_3063" x1="521.023" y1="0.618656" x2="873.903" y2="983.147"
                        gradientUnits="userSpaceOnUse">
            <stop stop-color="#2563EA"/>
            <stop offset="1" stop-color="#014BFA"/>
        </linearGradient>
        <linearGradient id="paint2_linear_5930_3063" x1="1035.41" y1="1552.74" x2="1035.41" y2="0.618652"
                        gradientUnits="userSpaceOnUse">
            <stop stop-color="#1C155C"/>
            <stop offset="0.39942" stop-color="#014BFA"/>
            <stop offset="0.997" stop-color="#014BFA"/>
            <stop offset="1" stop-color="#FD7810"/>
        </linearGradient>
    </defs>
</svg>
