<svg width="120" height="32" viewBox="0 0 120 32" fill="none" xmlns="http://www.w3.org/2000/svg">
    <g id="Group">
        <path id="Vector" fill-rule="evenodd" clip-rule="evenodd"
              d="M34.7368 28.6399H16.4443C14.536 28.6399 12.7725 27.7111 11.8172 26.2011L11.5789 25.8251L11.3407 25.4471C10.3854 23.9391 8.62186 23.0083 6.71134 23.0083H0L3.56275 17.3767H10.2741C11.2294 17.3767 12.1468 17.6084 12.9462 18.0291C13.7455 18.4518 14.4269 19.0615 14.9034 19.8155L15.1417 20.1915L15.38 20.5695C16.3352 22.0795 18.0988 23.0083 20.0071 23.0083H31.1741L32.9555 25.8251L34.7368 28.6399Z"
              fill="url(#paint0_linear_158_386)"/>
        <path id="Vector_2" fill-rule="evenodd" clip-rule="evenodd"
              d="M34.7339 28.64L16.9224 0.47998L13.3604 6.11198L27.6109 28.64H34.7339Z"
              fill="url(#paint1_linear_158_386)"/>
        <path id="Vector_3" fill-rule="evenodd" clip-rule="evenodd"
              d="M20.4835 6.11157L18.7021 8.92839L16.9208 11.7452L15.1394 14.56L13.358 17.3768L12.9461 18.0292C12.1467 17.6085 11.2293 17.3768 10.274 17.3768H3.66064C5.25275 17.3768 6.72239 16.6025 7.51732 15.3445L8.01388 14.56L9.79526 11.7452L11.5766 8.92839L13.358 6.11157L15.1394 3.29679L16.9208 0.47998L18.7021 3.29679L20.4835 6.11157Z"
              fill="url(#paint2_linear_158_386)"/>
        <path id="Vector_4"
              d="M41.7539 25.8041V3.35986H44.3166V25.8041H41.7539ZM48.5101 17.7242L55.3329 25.8041H52.1711L45.5813 17.7242L51.5388 11.2303H54.7005L48.5101 17.7242ZM64.4188 10.9011C66.327 10.9011 67.858 11.4099 69.0117 12.4273C70.1655 13.4448 70.7424 14.9111 70.7424 16.8264V25.8041H68.1797V16.7067C68.1797 15.5097 67.8302 14.5969 67.1313 13.9685C66.4324 13.3401 65.4728 13.0258 64.2524 13.0258C62.433 13.0258 60.8577 13.8039 59.5264 15.36L57.829 14.1032C59.3156 11.9685 61.5122 10.9011 64.4188 10.9011ZM66.5489 17.9636V19.8489H63.3205C61.013 19.8489 59.8592 20.5471 59.8592 21.9437C59.8592 22.7018 60.1865 23.2704 60.841 23.6494C61.4956 24.0285 62.3221 24.218 63.3205 24.218C64.3634 24.218 65.4395 23.9387 66.5489 23.3801V25.2654C65.5282 25.844 64.2635 26.1333 62.7548 26.1333C61.2016 26.1333 59.8925 25.7592 58.8275 25.011C57.7625 24.2629 57.23 23.2704 57.23 22.0334C57.23 20.8165 57.7625 19.8339 58.8275 19.0858C59.8925 18.3376 61.3125 17.9636 63.0876 17.9636H66.5489ZM79.9947 23.41L74.2037 11.2303H76.9661L81.3593 20.5372L79.9947 23.41ZM76.9328 31.5199C76.1562 31.5199 75.3242 31.4201 74.4367 31.2206V29.2754C75.2798 29.3752 75.9455 29.4251 76.4336 29.4251C77.2767 29.4251 77.9923 29.2555 78.5803 28.9163C79.1682 28.5772 79.6619 27.9687 80.0613 27.0909L87.6828 11.2303H90.412L82.4576 27.8091C81.2595 30.2829 79.4179 31.5199 76.9328 31.5199ZM97.3679 7.25019V11.2303H102.427V13.2952H92.0761V11.2303H94.8052V7.25019H97.3679ZM97.3679 14.7615V21.2554C97.3679 22.2928 97.6619 23.016 98.2498 23.425C98.8378 23.834 99.6865 24.0385 100.796 24.0385C101.417 24.0385 102.138 23.9786 102.959 23.8589V25.8041C101.983 26.0235 101.073 26.1333 100.23 26.1333C98.566 26.1333 97.2458 25.7442 96.2696 24.9662C95.2933 24.1881 94.8052 23.001 94.8052 21.405V14.7615H97.3679ZM113.31 26.1333C111.38 26.1333 109.776 25.5697 108.501 24.4425C107.225 23.3153 106.587 21.8339 106.587 19.9985V11.2303H109.15V20.1481C109.15 21.3252 109.543 22.2579 110.331 22.9462C111.119 23.6345 112.123 23.9786 113.343 23.9786C114.231 23.9786 115.063 23.7891 115.839 23.41V25.6245C115.041 25.9637 114.197 26.1333 113.31 26.1333ZM117.437 24.7866V11.2303H120V19.9985C120 22.213 119.145 23.809 117.437 24.7866Z"
              fill="#1C155C"/>
    </g>
    <defs>
        <linearGradient id="paint0_linear_158_386" x1="3473.68" y1="650.616" x2="1801.92" y2="301.148"
                        gradientUnits="userSpaceOnUse">
            <stop stop-color="#1C155C"/>
            <stop offset="1" stop-color="#014BFA"/>
        </linearGradient>
        <linearGradient id="paint1_linear_158_386" x1="710.481" y1="0.479985" x2="1191.68" y2="1340.29"
                        gradientUnits="userSpaceOnUse">
            <stop stop-color="#2563EA"/>
            <stop offset="1" stop-color="#014BFA"/>
        </linearGradient>
        <linearGradient id="paint2_linear_158_386" x1="1411.92" y1="2117" x2="1411.92" y2="0.47998"
                        gradientUnits="userSpaceOnUse">
            <stop stop-color="#1C155C"/>
            <stop offset="0.39942" stop-color="#014BFA"/>
            <stop offset="0.998" stop-color="#014BFA"/>
            <stop offset="1" stop-color="#FD7810"/>
        </linearGradient>
    </defs>
</svg>
